# xmcd
#
# Track frame offsets:
#	150
#	21315
#	38957
#	56210
#	72540
#	88175
#	108025
#	127215
#	139580
#	158150
#	172615
#
# Disc length: 2542 seconds
#
# Revision: 0
# Processed by: cddbd v1.4PL0 Copyright (c) Steve Scherf et al.
# Submitted via: dBpowerAMP V4.0
#
DISCID=9709ec0b
DTITLE=Julio iglesias - la carretera
DYEAR=1995
DGENRE=Latin
TTITLE0=la carretera
TTITLE1=cosas la vida
TTITLE2=baila morena
TTITLE3=derroche
TTITLE4=el ultimo verano
TTITLE5=agua dulce,agua sala
TTITLE6=sin excusa ni rodeos
TTITLE7=mal de amor
TTITLE8=rumba(meddley)
TTITLE9=vuela alto
TTITLE10=vers la frontiere (la carreta)
EXTD=
EXTT0=
EXTT1=
EXTT2=
EXTT3=
EXTT4=
EXTT5=
EXTT6=
EXTT7=
EXTT8=
EXTT9=
EXTT10=
PLAYORDER=
